<svg width="100" height="100" viewBox="0 0 100 100" fill="none" xmlns="http://www.w3.org/2000/svg">
<rect width="100" height="100" rx="20" fill="#0F172A"/>
<mask id="mask0_370_1016" style="mask-type:alpha" maskUnits="userSpaceOnUse" x="11" y="17" width="66" height="66">
<rect x="11" y="17" width="66" height="66" fill="#D9D9D9"/>
</mask>
<g mask="url(#mask0_370_1016)">
<path d="M27.5 55.5C27.5 57.8833 27.9813 60.1406 28.9438 62.2719C29.9063 64.4031 31.2812 66.2708 33.0688 67.875C33.0229 67.6458 33 67.4396 33 67.2563V66.6375C33 65.1708 33.275 63.7958 33.825 62.5125C34.375 61.2292 35.1771 60.0604 36.2313 59.0063L44 51.375L51.7687 59.0063C52.8229 60.0604 53.625 61.2292 54.175 62.5125C54.725 63.7958 55 65.1708 55 66.6375V67.2563C55 67.4396 54.9771 67.6458 54.9313 67.875C56.7188 66.2708 58.0938 64.4031 59.0563 62.2719C60.0187 60.1406 60.5 57.8833 60.5 55.5C60.5 53.2083 60.076 51.0427 59.2281 49.0031C58.3802 46.9635 57.1542 45.1417 55.55 43.5375C54.6333 44.1333 53.6708 44.5802 52.6625 44.8781C51.6542 45.176 50.6229 45.325 49.5688 45.325C46.7271 45.325 44.2635 44.3854 42.1781 42.5063C40.0927 40.6271 38.8896 38.3125 38.5688 35.5625C36.7812 37.075 35.2 38.6448 33.825 40.2719C32.45 41.899 31.2927 43.549 30.3531 45.2219C29.4135 46.8948 28.7031 48.6021 28.2219 50.3438C27.7406 52.0854 27.5 53.8042 27.5 55.5ZM44 59.075L40.0813 62.925C39.5771 63.4292 39.1875 64.0021 38.9125 64.6437C38.6375 65.2854 38.5 65.95 38.5 66.6375C38.5 68.1042 39.0385 69.3646 40.1156 70.4188C41.1927 71.4729 42.4875 72 44 72C45.5125 72 46.8073 71.4729 47.8844 70.4188C48.9615 69.3646 49.5 68.1042 49.5 66.6375C49.5 65.9042 49.3625 65.2281 49.0875 64.6094C48.8125 63.9906 48.4229 63.4292 47.9188 62.925L44 59.075ZM44 25.25V34.325C44 35.8833 44.5385 37.1896 45.6156 38.2437C46.6927 39.2979 48.0104 39.825 49.5688 39.825C50.3938 39.825 51.1615 39.6531 51.8719 39.3094C52.5823 38.9656 53.2125 38.45 53.7625 37.7625L55 36.25C58.3917 38.175 61.0729 40.8563 63.0438 44.2938C65.0146 47.7313 66 51.4667 66 55.5C66 61.6417 63.8688 66.8438 59.6063 71.1063C55.3438 75.3688 50.1417 77.5 44 77.5C37.8583 77.5 32.6562 75.3688 28.3938 71.1063C24.1312 66.8438 22 61.6417 22 55.5C22 49.5875 23.9823 43.9729 27.9469 38.6562C31.9115 33.3396 37.2625 28.8708 44 25.25Z" fill="#4ADE80"/>
</g>
<rect x="48.5" y="19.5" width="41" height="26" rx="5.5" fill="#4ADE80"/>
<rect x="48.5" y="19.5" width="41" height="26" rx="5.5" stroke="#0F172A" stroke-width="3"/>
<path d="M59.8523 37H56.7585V28.2727H59.8778C60.7557 28.2727 61.5114 28.4474 62.1449 28.7969C62.7784 29.1435 63.2656 29.642 63.6065 30.2926C63.9503 30.9432 64.1222 31.7216 64.1222 32.6278C64.1222 33.5369 63.9503 34.3182 63.6065 34.9716C63.2656 35.625 62.7756 36.1264 62.1364 36.4759C61.5 36.8253 60.7386 37 59.8523 37ZM58.6037 35.419H59.7756C60.321 35.419 60.7798 35.3224 61.152 35.1293C61.527 34.9332 61.8082 34.6307 61.9957 34.2216C62.1861 33.8097 62.2812 33.2784 62.2812 32.6278C62.2812 31.983 62.1861 31.456 61.9957 31.0469C61.8082 30.6378 61.5284 30.3366 61.1562 30.1435C60.7841 29.9503 60.3253 29.8537 59.7798 29.8537H58.6037V35.419ZM65.489 37V28.2727H71.3697V29.794H67.3342V31.8736H71.0671V33.3949H67.3342V35.4787H71.3867V37H65.489ZM74.4134 28.2727L76.5227 34.9034H76.6037L78.7173 28.2727H80.7628L77.7543 37H75.3764L72.3636 28.2727H74.4134Z" fill="#0F172A"/>
</svg>
