<svg width="100" height="100" viewBox="0 0 100 100" fill="none" xmlns="http://www.w3.org/2000/svg">
<rect width="100" height="100" rx="20" fill="#0F172A"/>
<mask id="mask0_397_1006" style="mask-type:alpha" maskUnits="userSpaceOnUse" x="17" y="17" width="66" height="66">
<rect x="17" y="17" width="66" height="66" fill="#D9D9D9"/>
</mask>
<g mask="url(#mask0_397_1006)">
<path d="M33.5 55.5C33.5 57.8833 33.9813 60.1406 34.9438 62.2719C35.9063 64.4031 37.2813 66.2708 39.0688 67.875C39.0229 67.6458 39 67.4396 39 67.2563V66.6375C39 65.1708 39.275 63.7958 39.825 62.5125C40.375 61.2292 41.1771 60.0604 42.2313 59.0063L50 51.375L57.7687 59.0063C58.8229 60.0604 59.625 61.2292 60.175 62.5125C60.725 63.7958 61 65.1708 61 66.6375V67.2563C61 67.4396 60.9771 67.6458 60.9313 67.875C62.7188 66.2708 64.0938 64.4031 65.0563 62.2719C66.0188 60.1406 66.5 57.8833 66.5 55.5C66.5 53.2083 66.076 51.0427 65.2281 49.0031C64.3802 46.9635 63.1542 45.1417 61.55 43.5375C60.6333 44.1333 59.6708 44.5802 58.6625 44.8781C57.6542 45.176 56.6229 45.325 55.5688 45.325C52.7271 45.325 50.2635 44.3854 48.1781 42.5063C46.0927 40.6271 44.8896 38.3125 44.5688 35.5625C42.7813 37.075 41.2 38.6448 39.825 40.2719C38.45 41.899 37.2927 43.549 36.3531 45.2219C35.4135 46.8948 34.7031 48.6021 34.2219 50.3438C33.7406 52.0854 33.5 53.8042 33.5 55.5ZM50 59.075L46.0813 62.925C45.5771 63.4292 45.1875 64.0021 44.9125 64.6437C44.6375 65.2854 44.5 65.95 44.5 66.6375C44.5 68.1042 45.0385 69.3646 46.1156 70.4188C47.1927 71.4729 48.4875 72 50 72C51.5125 72 52.8073 71.4729 53.8844 70.4188C54.9615 69.3646 55.5 68.1042 55.5 66.6375C55.5 65.9042 55.3625 65.2281 55.0875 64.6094C54.8125 63.9906 54.4229 63.4292 53.9188 62.925L50 59.075ZM50 25.25V34.325C50 35.8833 50.5385 37.1896 51.6156 38.2437C52.6927 39.2979 54.0104 39.825 55.5688 39.825C56.3938 39.825 57.1615 39.6531 57.8719 39.3094C58.5823 38.9656 59.2125 38.45 59.7625 37.7625L61 36.25C64.3917 38.175 67.0729 40.8563 69.0438 44.2938C71.0146 47.7313 72 51.4667 72 55.5C72 61.6417 69.8688 66.8438 65.6063 71.1063C61.3438 75.3688 56.1417 77.5 50 77.5C43.8583 77.5 38.6563 75.3688 34.3938 71.1063C30.1312 66.8438 28 61.6417 28 55.5C28 49.5875 29.9823 43.9729 33.9469 38.6562C37.9115 33.3396 43.2625 28.8708 50 25.25Z" fill="#4ADE80"/>
</g>
</svg>
