<svg viewBox="0 0 926 1016" fill="none" xmlns="http://www.w3.org/2000/svg">
<path d="M273.413 740.763C287.784 752.734 287.816 774.792 273.481 786.806L49.2696 974.709C29.7452 991.072 -8.43406e-06 977.19 -8.43406e-06 951.716L-8.43406e-06 577.037C-8.43406e-06 551.604 29.6607 537.708 49.2015 553.987L273.413 740.763Z" fill="currentColor"/>
<path d="M670.373 773.301C656.092 761.306 656.1 739.325 670.391 727.342L876.724 554.321C896.246 537.95 926 551.83 926 577.308V923.626C926 949.115 896.224 962.991 876.706 946.598L670.373 773.301Z" fill="currentColor"/>
<path opacity="0.5" d="M442.816 798.138C453.953 788.8 470.181 788.787 481.332 798.108L678.574 962.982C700.085 980.963 687.37 1016 659.334 1016H265.468C237.454 1016 224.726 981.012 246.192 963.012L442.816 798.138Z" fill="#2563EB"/>
<path opacity="0.5" d="M461.126 163.402C472.374 172.96 488.905 172.915 500.102 163.296L627.598 53.7549C648.71 35.6156 635.882 0.999997 608.047 0.999997L351.636 0.999997C323.72 0.999997 310.937 35.7851 332.211 53.8614L461.126 163.402Z" fill="#2563EB"/>
<path d="M0 238.007V64.9422C0 39.4415 29.799 25.569 49.3128 41.9854L453.114 381.691C464.309 391.109 480.665 391.078 491.825 381.618L876.101 55.8743C895.594 39.351 925.5 53.2053 925.5 78.7587V256.536C925.5 265.389 921.59 273.791 914.815 279.491L493.785 633.773C482.635 643.155 466.355 643.168 455.19 633.803L10.7207 260.992C3.925 255.292 0 246.877 0 238.007Z" fill="currentColor"/>
</svg>
