<svg width="170" height="170" viewBox="0 0 170 170" fill="none" xmlns="http://www.w3.org/2000/svg">
<rect width="170" height="170" fill="#111827"/>
<path d="M47.264 32.232C50.72 32.488 55.2 32.744 57.888 32.744C65.312 32.744 78.88 32.232 84.768 31.72C87.968 31.464 91.296 30.696 93.6 29.8L103.712 37.864C102.048 39.784 100.512 41.448 99.488 43.112C95.136 50.408 88.224 66.92 82.464 80.232C77.344 92.008 71.2 107.24 65.952 115.304C60.832 123.112 54.816 126.568 45.984 126.568C34.848 126.568 26.4 118.888 26.4 105.832C26.4 85.352 45.984 69.608 73.376 69.608C103.2 69.608 129.312 85.48 142.752 94.696L135.328 112.488C119.584 98.536 97.056 83.944 70.688 83.944C52 83.944 41.248 94.056 41.248 103.4C41.248 107.624 43.68 109.8 46.752 109.8C49.312 109.8 50.976 108.648 53.408 105.448C57.632 99.176 62.24 87.4 66.848 77.288C71.328 67.176 76.576 54.632 80.416 46.696C75.296 46.824 64.16 47.208 58.4 47.592C55.712 47.72 51.232 48.232 47.904 48.616L47.264 32.232ZM131.488 62.44C129.696 98.792 122.528 122.344 91.936 138.216L78.24 127.08C109.856 113.512 113.696 89.576 114.848 74.6C115.104 69.608 115.232 64.488 114.72 60.52L131.488 62.44Z" fill="#60A5FA"/>
</svg>
