<svg width="2048" height="2048" viewBox="0 0 2048 2048" fill="none" xmlns="http://www.w3.org/2000/svg">
<rect width="2048" height="2048" fill="#020617"/>
<path d="M569.428 385.695C611.062 388.779 665.033 391.863 697.416 391.863C786.853 391.863 950.307 385.695 1021.24 379.527C1059.79 376.443 1099.88 367.191 1127.64 356.397L1249.46 453.544C1229.41 476.674 1210.91 496.721 1198.57 516.767C1146.14 604.662 1062.88 803.583 993.484 963.954C931.803 1105.82 857.786 1289.32 794.563 1386.47C732.882 1480.53 660.407 1522.17 554.007 1522.17C419.851 1522.17 318.078 1429.64 318.078 1272.36C318.078 1025.63 554.007 835.966 884 835.966C1243.29 835.966 1557.86 1027.18 1719.78 1138.2L1630.34 1352.54C1440.67 1184.46 1169.27 1008.67 851.618 1008.67C626.482 1008.67 496.952 1130.49 496.952 1243.06C496.952 1293.95 526.251 1320.16 563.259 1320.16C594.1 1320.16 614.146 1306.28 643.445 1267.73C694.331 1192.17 749.844 1050.31 805.357 928.487C859.328 806.667 922.551 655.549 968.812 559.944C907.131 561.486 772.975 566.112 703.584 570.738C671.201 572.28 617.23 578.448 577.138 583.074L569.428 385.695ZM1584.08 749.613C1562.49 1187.55 1476.14 1471.28 1107.59 1662.49L942.597 1528.33C1323.48 1364.88 1369.74 1076.52 1383.62 896.105C1386.7 835.966 1388.24 774.285 1382.07 726.482L1584.08 749.613Z" fill="white"/>
</svg>
