<svg width="117" height="110" viewBox="0 0 117 110" fill="none" xmlns="http://www.w3.org/2000/svg">
<path d="M21.264 3.23199C24.72 3.488 29.2 3.744 31.888 3.744C39.312 3.744 52.88 3.23199 58.768 2.71999C61.968 2.464 65.296 1.696 67.6 0.799995L77.712 8.864C76.048 10.784 74.512 12.448 73.488 14.112C69.136 21.408 62.224 37.92 56.464 51.232C51.344 63.008 45.2 78.24 39.952 86.304C34.832 94.112 28.816 97.568 19.984 97.568C8.848 97.568 0.4 89.888 0.4 76.832C0.4 56.352 19.984 40.608 47.376 40.608C77.2 40.608 103.312 56.48 116.752 65.696L109.328 83.488C93.584 69.536 71.056 54.944 44.688 54.944C26 54.944 15.248 65.056 15.248 74.4C15.248 78.624 17.68 80.8 20.752 80.8C23.312 80.8 24.976 79.648 27.408 76.448C31.632 70.176 36.24 58.4 40.848 48.288C45.328 38.176 50.576 25.632 54.416 17.696C49.296 17.824 38.16 18.208 32.4 18.592C29.712 18.72 25.232 19.232 21.904 19.616L21.264 3.23199ZM105.488 33.44C103.696 69.792 96.528 93.344 65.936 109.216L52.24 98.08C83.856 84.512 87.696 60.576 88.848 45.6C89.104 40.608 89.232 35.488 88.72 31.52L105.488 33.44Z" fill="#2563EB"/>
</svg>
